<svg xmlns="http://www.w3.org/2000/svg" width="170" height="48" fill="none"><rect width="170" height="48" rx="5"/><path fill="#000" d="M59.173 29.923h4.212l-1.508-4.037a29.507 29.507 0 0 1-.613-1.848c-.181.597-.38 1.206-.593 1.828l-1.498 4.057Zm4.931 1.916h-5.641l-1.381 3.774h-2.48l5.524-14.095h2.344l5.652 14.095h-2.607l-1.41-3.774ZM75.44 33.05c.489-.658.734-1.62.734-2.884 0-1.174-.203-2.025-.608-2.554-.406-.528-.946-.792-1.62-.792-.467 0-.898.11-1.294.33a4.87 4.87 0 0 0-1.128.886v5.622c.24.117.519.21.837.277.317.068.632.102.943.102.934 0 1.645-.329 2.135-.987Zm-6.319-5.364c0-.779-.025-1.635-.077-2.568H71.3c.085.434.143.878.175 1.332.934-1.018 2.004-1.527 3.21-1.527.7 0 1.35.177 1.946.53.596.354 1.078.911 1.444 1.673.367.762.55 1.73.55 2.904 0 1.225-.21 2.273-.628 3.142-.418.869-1.003 1.527-1.755 1.974-.752.448-1.622.672-2.607.672a6.42 6.42 0 0 1-2.111-.36v4.338L69.12 40V27.686ZM86.4 33.05c.49-.658.735-1.62.735-2.884 0-1.174-.203-2.025-.608-2.554-.405-.528-.945-.792-1.62-.792-.466 0-.898.11-1.293.33-.396.221-.772.516-1.129.886v5.622c.24.117.52.21.837.277.318.068.632.102.944.102.933 0 1.645-.329 2.135-.987Zm-6.317-5.364c0-.779-.026-1.635-.078-2.568h2.257c.084.434.142.878.175 1.332.934-1.018 2.004-1.527 3.21-1.527.7 0 1.348.177 1.945.53.597.354 1.078.911 1.445 1.673.366.762.55 1.73.55 2.904 0 1.225-.21 2.273-.628 3.142-.418.869-1.004 1.527-1.756 1.974-.752.448-1.621.672-2.607.672a6.42 6.42 0 0 1-2.11-.36v4.338L80.082 40V27.686ZM94 34.947a5.828 5.828 0 0 1-2.393-2.466c-.558-1.07-.837-2.335-.837-3.794 0-1.582.322-2.926.964-4.032.641-1.105 1.515-1.935 2.62-2.49 1.107-.554 2.347-.831 3.722-.831.81 0 1.584.089 2.32.267.735.178 1.421.423 2.057.735l-.613 1.848c-1.278-.61-2.497-.915-3.657-.915-.98 0-1.837.21-2.573.628-.736.418-1.309 1.033-1.717 1.843-.409.81-.613 1.79-.613 2.938 0 1.005.157 1.896.472 2.675A3.953 3.953 0 0 0 95.24 33.2c.678.454 1.532.68 2.563.68.467 0 .934-.038 1.401-.116a7.308 7.308 0 0 0 1.313-.34v-2.85h-3.258v-1.868h5.593v5.934c-.804.376-1.649.664-2.534.865-.886.201-1.766.302-2.641.302-1.414 0-2.64-.287-3.677-.861ZM109.95 33.668c.499-.24.908-.539 1.226-.895v-1.946a15.467 15.467 0 0 0-1.605-.107c-.992 0-1.678.16-2.057.482-.38.32-.57.754-.57 1.298 0 .52.138.904.414 1.153.276.25.65.375 1.123.375.48 0 .97-.12 1.469-.36Zm1.44 1.945a9.114 9.114 0 0 1-.166-1.39c-.369.44-.851.815-1.444 1.123-.593.308-1.263.462-2.009.462a3.782 3.782 0 0 1-1.649-.355 2.746 2.746 0 0 1-1.181-1.07c-.292-.477-.438-1.059-.438-1.747 0-1.017.366-1.83 1.099-2.436.733-.606 1.955-.91 3.667-.91.642 0 1.278.046 1.907.137v-.205c0-.927-.198-1.58-.594-1.96-.395-.379-.963-.569-1.702-.569-.512 0-1.06.075-1.644.224a8.688 8.688 0 0 0-1.537.535l-.379-1.75c.428-.196.992-.374 1.692-.536a9.829 9.829 0 0 1 2.218-.243c.908 0 1.68.138 2.315.413.636.276 1.132.75 1.489 1.42.356.672.535 1.575.535 2.71v4.172c0 .435.025 1.094.077 1.975h-2.256ZM115.412 33.094V20.692l2.393-.195v12.169c0 .447.076.763.228.948.152.185.394.278.725.278.149 0 .36-.036.632-.107l.282 1.721c-.227.091-.504.164-.831.219a5.644 5.644 0 0 1-.929.083c-1.667 0-2.5-.905-2.5-2.714ZM121.394 33.094V20.692l2.393-.195v12.169c0 .447.076.763.228.948.153.185.395.278.725.278.149 0 .36-.036.632-.107l.283 1.721c-.228.091-.505.164-.832.219a5.634 5.634 0 0 1-.929.083c-1.667 0-2.5-.905-2.5-2.714ZM133.153 29.145c-.048-.837-.257-1.464-.633-1.883-.376-.418-.881-.627-1.507-.627-.611 0-1.118.21-1.523.632-.405.422-.672 1.048-.794 1.878h4.457Zm2.342 1.527h-6.866c.109 2.198 1.156 3.297 3.142 3.297a6.7 6.7 0 0 0 1.514-.18 9.028 9.028 0 0 0 1.481-.481l.527 1.644c-1.176.57-2.494.856-3.959.856-1.118 0-2.056-.21-2.821-.633a4.048 4.048 0 0 1-1.729-1.819c-.385-.79-.578-1.744-.578-2.86 0-1.16.205-2.159.614-2.995.408-.837.976-1.476 1.706-1.917.729-.44 1.571-.661 2.525-.661.993 0 1.819.232 2.484.696a4.147 4.147 0 0 1 1.478 1.852c.321.772.482 1.625.482 2.559v.642ZM137.314 27.754c0-.577-.029-1.456-.081-2.636h2.25a29.238 29.238 0 0 1 .183 2.033c.279-.46.552-.848.822-1.163.27-.315.585-.57.945-.768.36-.198.768-.297 1.231-.297.369 0 .684.039.951.117l-.302 2.081a2.646 2.646 0 0 0-.778-.107c-.562 0-1.057.145-1.478.433-.421.289-.871.764-1.353 1.425v6.741h-2.39v-7.86ZM144.964 39.907a5.765 5.765 0 0 1-.864-.208l.437-1.751c.16.045.366.089.614.13.244.043.478.064.7.064 1.064 0 1.86-.684 2.391-2.052l.157-.39-3.872-10.582h2.577l1.947 5.914c.315 1.011.521 1.786.611 2.324.183-.758.395-1.517.642-2.276l1.976-5.962h2.42l-3.859 10.631c-.363 1.005-.758 1.816-1.179 2.432-.421.616-.919 1.073-1.491 1.372-.575.298-1.266.447-2.079.447-.402 0-.778-.03-1.128-.093ZM54.59 8.1h4.283l-.12 1.035h-2.907v2.003h2.741v.969h-2.741v2.219h3.062l-.105 1.044H54.59V8.1ZM61.825 11.66 59.566 8.1h1.426l1.531 2.616 1.612-2.615h1.385l-2.239 3.514 2.425 3.755H64.26l-1.732-2.861-1.762 2.861H59.38l2.445-3.71ZM69.778 11.346c.267-.242.401-.585.401-1.026 0-.449-.136-.772-.409-.97-.273-.197-.674-.295-1.202-.295h-.683v2.58c.315.05.556.075.723.075.512 0 .902-.12 1.17-.364ZM66.63 8.101h1.958c.92 0 1.625.187 2.113.562.49.375.733.917.733 1.626 0 .482-.11.904-.328 1.263-.22.36-.525.636-.917.828-.391.193-.842.29-1.35.29-.278 0-.596-.034-.954-.101v2.801H66.63V8.1ZM72.674 8.1h1.256v6.196h3.007l-.106 1.074h-4.157V8.1ZM82.098 14.123c.352-.236.614-.56.788-.974.174-.413.261-.886.261-1.419a3.94 3.94 0 0 0-.23-1.395 2.073 2.073 0 0 0-.739-.977c-.338-.242-.773-.364-1.305-.364-.509 0-.94.123-1.295.37a2.26 2.26 0 0 0-.799.988c-.177.414-.266.87-.266 1.368 0 .526.084.996.251 1.411.167.415.424.743.769.984.344.241.77.362 1.28.362.505 0 .933-.119 1.285-.354Zm-3.253.89a3.039 3.039 0 0 1-1.22-1.282c-.281-.55-.422-1.19-.422-1.92 0-.767.15-1.437.45-2.011.299-.574.73-1.017 1.294-1.33.564-.313 1.23-.47 1.996-.47.733 0 1.364.152 1.893.454.529.304.932.73 1.21 1.278.278.55.416 1.185.416 1.908 0 .78-.15 1.458-.454 2.033a3.182 3.182 0 0 1-1.295 1.33c-.56.312-1.22.468-1.975.468-.73 0-1.361-.152-1.893-.457ZM87.832 11.54c.304 0 .573-.06.808-.179.234-.118.416-.286.547-.502.13-.216.196-.466.196-.75 0-.365-.116-.632-.347-.8-.23-.17-.567-.254-1.009-.254h-.909v2.485h.714ZM85.863 8.1h2.275c.83 0 1.458.166 1.885.498.427.33.64.805.64 1.42 0 .385-.077.724-.231 1.017a2.245 2.245 0 0 1-.572.715 2.546 2.546 0 0 1-.703.412l2.234 3.208h-1.456l-1.893-2.882h-.924v2.882h-1.255V8.1ZM92.385 8.1h4.282l-.12 1.035H93.64v2.003h2.741v.969h-2.74v2.219h3.061l-.105 1.044h-4.212V8.1ZM101.327 8.1h1.255v7.27h-1.255V8.1ZM105.9 9.15h-2.254l.11-1.05h5.659l-.116 1.05h-2.144v6.22H105.9V9.15ZM118.115 14.123c.351-.236.614-.56.788-.974.174-.413.261-.886.261-1.419 0-.522-.077-.987-.231-1.395a2.071 2.071 0 0 0-.738-.977c-.338-.242-.773-.364-1.305-.364-.509 0-.941.123-1.295.37a2.255 2.255 0 0 0-.798.988c-.178.414-.267.87-.267 1.368 0 .526.084.996.251 1.411.168.415.424.743.768.984.345.241.772.362 1.281.362.505 0 .934-.119 1.285-.354Zm-3.253.89a3.033 3.033 0 0 1-1.22-1.282c-.281-.55-.422-1.19-.422-1.92 0-.767.15-1.437.449-2.011.3-.574.731-1.017 1.296-1.33.564-.313 1.229-.47 1.995-.47.733 0 1.364.152 1.893.454.529.304.932.73 1.21 1.278.277.55.417 1.185.417 1.908 0 .78-.152 1.458-.455 2.033a3.185 3.185 0 0 1-1.295 1.33c-.561.312-1.219.468-1.976.468-.729 0-1.36-.152-1.892-.457ZM121.88 8.1h1.441l3.595 5.633a24.809 24.809 0 0 1-.045-1.48V8.1h1.164v7.27h-1.395l-3.65-5.724c.037.65.055 1.225.055 1.727v3.996h-1.165V8.1Z"/><path fill="#C91C2E" d="M28.317 26.647h1.224l-.614-1.428-.61 1.428Z"/><path fill="#C91C2E" fill-rule="evenodd" d="M36.937 8.944H23.588c-6.288 0-8.588 2.3-8.588 8.588V30.88c0 6.288 2.3 8.587 8.588 8.587h13.344c6.288 0 8.593-2.3 8.593-8.587V17.53c0-6.287-2.3-8.587-8.588-8.587Zm-8.921 18.422-.363.831h-.827l1.758-3.988h.714l1.752 3.988h-.85l-.358-.83h-1.826Zm13.303.829h.799v-3.986h-.8v3.986Zm-3.18-1.713h1.472v-.726H38.14v-.817h2.138v-.728H37.34v3.986h3.014v-.727h-2.215v-.988Zm-3.175.471-.906-2.744h-.66l-.907 2.744-.881-2.742h-.862l1.39 3.988h.671l.907-2.62.907 2.62h.677l1.387-3.988h-.84l-.883 2.742Zm-9.358-.46c0 .649-.322.995-.907.995-.589 0-.912-.356-.912-1.023v-2.254h-.81v2.282c0 1.123.623 1.766 1.71 1.766 1.099 0 1.729-.656 1.729-1.799v-2.251h-.81v2.284Zm-4.561-2.284h.81v3.99h-.81v-1.62h-1.829v1.62h-.81v-3.99h.81v1.61h1.829v-1.61Zm4.136-10.162c0 2.801 2.28 5.08 5.081 5.08 2.802 0 5.081-2.279 5.081-5.08h-.718a4.368 4.368 0 0 1-4.363 4.363 4.368 4.368 0 0 1-4.363-4.363h-.718Z" clip-rule="evenodd"/></svg>