<svg xmlns="http://www.w3.org/2000/svg" width="141" height="38" fill="none"><path fill="#111" d="M22.206 17.731c-.037-4.019 3.38-5.974 3.536-6.065-1.935-2.748-4.935-3.123-5.99-3.153-2.519-.258-4.963 1.468-6.246 1.468-1.31 0-3.286-1.443-5.416-1.4-2.74.04-5.305 1.586-6.712 3.985-2.902 4.892-.737 12.082 2.043 16.036 1.391 1.937 3.017 4.099 5.144 4.023 2.082-.084 2.86-1.292 5.371-1.292 2.49 0 3.22 1.292 5.389 1.243 2.234-.035 3.64-1.945 4.983-3.9 1.607-2.219 2.253-4.405 2.279-4.517-.053-.018-4.339-1.61-4.381-6.428ZM18.107 5.912c1.12-1.363 1.885-3.218 1.673-5.1-1.62.07-3.647 1.092-4.814 2.425-1.032 1.175-1.954 3.1-1.716 4.91 1.82.133 3.689-.893 4.857-2.235ZM52.328 32.346H49.42l-1.593-4.875h-5.539l-1.517 4.875h-2.833l5.488-16.596h3.39l5.513 16.596Zm-4.982-6.92-1.441-4.334c-.153-.442-.438-1.485-.86-3.126h-.051a117.89 117.89 0 0 1-.81 3.126l-1.415 4.334h4.577ZM66.44 26.215c0 2.035-.565 3.644-1.694 4.825-1.012 1.05-2.269 1.576-3.769 1.576-1.619 0-2.782-.566-3.49-1.699h-.051v6.304h-2.731V24.318c0-1.28-.035-2.593-.102-3.94h2.402l.153 1.897h.05c.912-1.429 2.294-2.142 4.148-2.142 1.45 0 2.66.557 3.63 1.673.97 1.118 1.454 2.587 1.454 4.409Zm-2.782.097c0-1.165-.269-2.125-.81-2.88-.59-.789-1.383-1.183-2.377-1.183-.673 0-1.286.22-1.833.652a3.014 3.014 0 0 0-1.074 1.712c-.085.33-.127.6-.127.811v1.995c0 .87.274 1.605.822 2.205.548.6 1.26.9 2.137.9 1.028 0 1.829-.387 2.401-1.158.574-.772.861-1.79.861-3.054ZM80.578 26.215c0 2.035-.565 3.644-1.696 4.825-1.01 1.05-2.267 1.576-3.767 1.576-1.62 0-2.782-.566-3.49-1.699h-.05v6.304h-2.732V24.318c0-1.28-.034-2.593-.1-3.94h2.4l.153 1.897h.051c.91-1.429 2.292-2.142 4.148-2.142 1.449 0 2.66.557 3.63 1.673.967 1.118 1.453 2.587 1.453 4.409Zm-2.782.097c0-1.165-.27-2.125-.811-2.88-.59-.789-1.381-1.183-2.376-1.183a2.89 2.89 0 0 0-1.834.652 3.012 3.012 0 0 0-1.074 1.712 3.46 3.46 0 0 0-.127.811v1.995c0 .87.274 1.605.82 2.205.548.599 1.26.9 2.14.9 1.028 0 1.828-.387 2.4-1.158.575-.772.862-1.79.862-3.054ZM96.384 27.693c0 1.412-.504 2.56-1.514 3.447-1.11.969-2.657 1.453-4.644 1.453-1.834 0-3.304-.345-4.417-1.034l.632-2.216a7.64 7.64 0 0 0 3.948 1.06c1.029 0 1.83-.227 2.404-.679.573-.451.858-1.057.858-1.813a2.28 2.28 0 0 0-.708-1.7c-.47-.461-1.255-.889-2.352-1.284-2.984-1.084-4.475-2.671-4.475-4.759 0-1.364.523-2.483 1.57-3.353 1.042-.872 2.433-1.307 4.172-1.307 1.551 0 2.84.263 3.869.788l-.683 2.167c-.96-.509-2.047-.763-3.263-.763-.96 0-1.71.23-2.249.69-.454.41-.683.91-.683 1.502 0 .656.26 1.199.783 1.625.455.395 1.281.821 2.48 1.281 1.467.575 2.544 1.247 3.237 2.018.69.768 1.035 1.73 1.035 2.877ZM105.411 22.375h-3.01v5.81c0 1.478.531 2.216 1.594 2.216.488 0 .892-.04 1.213-.123l.075 2.02c-.538.195-1.246.293-2.123.293-1.079 0-1.922-.32-2.53-.96-.606-.64-.911-1.716-.911-3.226v-6.032h-1.793v-1.995h1.793v-2.191l2.682-.789v2.98h3.01v1.997ZM118.994 26.266c0 1.84-.54 3.35-1.619 4.53-1.131 1.217-2.632 1.822-4.503 1.822-1.804 0-3.24-.582-4.311-1.747-1.071-1.164-1.606-2.635-1.606-4.407 0-1.854.551-3.373 1.656-4.554 1.103-1.182 2.592-1.773 4.463-1.773 1.803 0 3.255.582 4.35 1.748 1.048 1.131 1.57 2.591 1.57 4.381Zm-2.833.086c0-1.104-.242-2.05-.733-2.84-.572-.955-1.391-1.431-2.451-1.431-1.098 0-1.932.477-2.505 1.431-.49.791-.732 1.753-.732 2.89 0 1.104.242 2.05.732 2.838.591.956 1.416 1.432 2.48 1.432 1.043 0 1.861-.486 2.452-1.457.503-.804.757-1.76.757-2.863ZM127.871 22.717a4.865 4.865 0 0 0-.861-.074c-.96 0-1.703.353-2.226 1.06-.455.624-.683 1.412-.683 2.363v6.28h-2.729l.025-8.199c0-1.38-.034-2.635-.102-3.767h2.379l.099 2.29h.076c.288-.788.743-1.421 1.365-1.896a3.364 3.364 0 0 1 1.974-.641c.253 0 .481.017.683.048v2.536ZM140.084 25.799c0 .476-.032.878-.1 1.206h-8.193c.032 1.182.428 2.086 1.189 2.71.69.557 1.583.836 2.679.836 1.213 0 2.32-.188 3.315-.566l.428 1.846c-1.163.494-2.536.74-4.12.74-1.906 0-3.402-.547-4.491-1.638-1.086-1.091-1.631-2.557-1.631-4.395 0-1.804.506-3.307 1.519-4.506 1.061-1.279 2.494-1.919 4.298-1.919 1.771 0 3.112.64 4.023 1.92.721 1.016 1.084 2.273 1.084 3.766Zm-2.604-.69c.018-.788-.161-1.469-.531-2.044-.472-.74-1.199-1.109-2.176-1.109-.893 0-1.619.36-2.174 1.084-.454.575-.725 1.265-.808 2.068h5.689v.001ZM46.442 5.546c0 1.468-.452 2.573-1.355 3.315-.837.684-2.025 1.027-3.565 1.027a16.97 16.97 0 0 1-1.963-.097v-8.02c.713-.112 1.482-.17 2.312-.17 1.466 0 2.572.311 3.317.932.835.702 1.254 1.706 1.254 3.013Zm-1.415.036c0-.951-.259-1.68-.776-2.19-.518-.507-1.274-.762-2.269-.762a5.83 5.83 0 0 0-1.081.085v6.097c.165.025.467.036.907.036 1.027 0 1.82-.278 2.379-.834.558-.556.84-1.367.84-2.432ZM53.947 6.827c0 .904-.265 1.645-.795 2.226-.556.597-1.293.895-2.212.895-.887 0-1.593-.285-2.119-.859-.525-.572-.788-1.294-.788-2.165 0-.91.27-1.657.814-2.237.543-.58 1.273-.87 2.192-.87.887 0 1.599.285 2.138.857.513.557.77 1.275.77 2.153Zm-1.392.042c0-.542-.12-1.007-.36-1.395-.282-.47-.683-.704-1.204-.704-.54 0-.95.235-1.231.704-.241.388-.36.86-.36 1.419 0 .542.12 1.008.36 1.395.29.47.695.704 1.218.704.512 0 .915-.238 1.204-.716.248-.395.373-.864.373-1.407ZM64.01 3.938l-1.89 5.878h-1.229l-.782-2.553c-.199-.637-.36-1.27-.486-1.899H59.6a13.596 13.596 0 0 1-.486 1.9l-.83 2.552h-1.245l-1.776-5.879h1.38l.682 2.795c.165.661.301 1.29.41 1.887h.024c.1-.491.265-1.117.498-1.874l.857-2.806h1.094l.821 2.746c.199.67.36 1.314.485 1.935h.037c.09-.605.228-1.25.41-1.935l.732-2.746h1.318v-.002ZM70.968 9.815h-1.342V6.448c0-1.038-.405-1.557-1.217-1.557-.398 0-.72.142-.97.428a1.494 1.494 0 0 0-.372 1.008v3.486h-1.343V5.616c0-.517-.016-1.076-.048-1.683h1.18l.062.92h.037c.157-.286.39-.522.696-.71.364-.22.771-.33 1.217-.33.563 0 1.032.177 1.405.532.464.435.695 1.085.695 1.948v3.522ZM74.668 9.814h-1.34V1.238h1.34v8.576ZM82.574 6.827c0 .904-.265 1.645-.795 2.226-.556.597-1.294.895-2.212.895-.888 0-1.594-.285-2.12-.859-.524-.572-.787-1.294-.787-2.165 0-.91.27-1.657.814-2.237.543-.58 1.273-.87 2.191-.87.888 0 1.599.285 2.14.857.512.557.77 1.275.77 2.153Zm-1.394.042c0-.542-.12-1.007-.36-1.395-.28-.47-.682-.704-1.202-.704-.54 0-.95.235-1.231.704-.241.388-.36.86-.36 1.419 0 .542.12 1.008.36 1.395.29.47.695.704 1.218.704.512 0 .913-.238 1.203-.716.25-.395.372-.864.372-1.407ZM89.07 9.815h-1.205l-.1-.677h-.037c-.412.54-1 .81-1.764.81-.57 0-1.03-.178-1.378-.532-.315-.322-.473-.722-.473-1.197 0-.719.308-1.266.926-1.645.618-.38 1.486-.565 2.604-.557v-.11c0-.774-.417-1.16-1.254-1.16-.595 0-1.12.146-1.574.435l-.273-.858c.561-.338 1.254-.508 2.072-.508 1.578 0 2.37.811 2.37 2.432v2.165c0 .587.029 1.055.086 1.402Zm-1.393-2.02v-.907c-1.481-.025-2.221.37-2.221 1.185 0 .306.084.536.257.69.173.153.393.229.656.229.294 0 .57-.091.821-.272a1.112 1.112 0 0 0 .487-.925ZM96.698 9.814h-1.192l-.062-.944h-.038c-.38.719-1.028 1.078-1.939 1.078a2.297 2.297 0 0 1-1.814-.835c-.48-.556-.72-1.278-.72-2.164 0-.952.26-1.723.783-2.311.506-.549 1.126-.823 1.864-.823.81 0 1.378.265 1.701.798h.026V1.238h1.343v6.993c0 .572.016 1.1.048 1.583Zm-1.391-2.479v-.98c0-.17-.013-.307-.038-.412a1.481 1.481 0 0 0-.485-.791 1.34 1.34 0 0 0-.898-.32c-.5 0-.893.192-1.18.58-.287.388-.431.883-.431 1.488 0 .581.137 1.052.412 1.415.29.387.683.58 1.173.58.441 0 .793-.16 1.061-.484.259-.298.386-.657.386-1.076ZM108.18 6.827c0 .904-.266 1.645-.796 2.226-.556.597-1.291.895-2.212.895-.885 0-1.591-.285-2.119-.859-.525-.572-.787-1.294-.787-2.165 0-.91.27-1.657.813-2.237.543-.58 1.273-.87 2.194-.87.885 0 1.599.285 2.137.857.512.557.77 1.275.77 2.153Zm-1.392.042c0-.542-.12-1.007-.359-1.395-.284-.47-.683-.704-1.206-.704-.538 0-.948.235-1.231.704-.241.388-.36.86-.36 1.419 0 .542.121 1.008.36 1.395.291.47.696.704 1.218.704.513 0 .916-.238 1.206-.716.247-.395.372-.864.372-1.407ZM115.397 9.815h-1.341V6.448c0-1.038-.405-1.557-1.218-1.557-.399 0-.72.142-.969.428a1.49 1.49 0 0 0-.372 1.008v3.486h-1.344V5.616c0-.517-.016-1.076-.048-1.683h1.179l.063.92h.037c.157-.286.39-.522.695-.71a2.32 2.32 0 0 1 1.218-.33c.563 0 1.032.177 1.404.532.465.435.696 1.085.696 1.948v3.522ZM124.431 4.916h-1.478V7.77c0 .726.263 1.09.783 1.09.241 0 .44-.02.598-.062l.035.991c-.266.098-.614.146-1.043.146-.53 0-.943-.157-1.241-.471-.3-.314-.449-.843-.449-1.585V4.916h-.882v-.98h.882V2.86l1.316-.386v1.462h1.478v.98h.001ZM131.537 9.814h-1.344V6.472c0-1.054-.404-1.581-1.215-1.581-.623 0-1.048.305-1.281.917-.04.128-.063.285-.063.47v3.535h-1.341V1.238h1.341v3.543h.026c.422-.645 1.028-.966 1.813-.966.556 0 1.016.177 1.381.532.455.443.683 1.101.683 1.972v3.495ZM138.868 6.597c0 .234-.018.431-.05.592h-4.026c.018.581.21 1.024.583 1.33.341.275.78.412 1.318.412.596 0 1.139-.092 1.628-.278l.21.908c-.572.242-1.246.363-2.026.363-.935 0-1.672-.268-2.204-.804-.536-.537-.801-1.256-.801-2.159 0-.887.247-1.625.745-2.214.521-.628 1.224-.942 2.111-.942.869 0 1.529.314 1.974.942.36.5.538 1.117.538 1.85Zm-1.281-.338a1.717 1.717 0 0 0-.26-1.004c-.233-.363-.588-.545-1.068-.545-.438 0-.795.177-1.068.533a1.951 1.951 0 0 0-.399 1.016h2.795Z"/></svg>