<svg xmlns="http://www.w3.org/2000/svg" width="150" height="33" fill="none"><path fill="#111" stroke="#fff" stroke-miterlimit="10" stroke-width=".16" d="M48.442 4.412c0 1.001-.324 1.804-.961 2.402-.733.709-1.687 1.066-2.856 1.066-1.117 0-2.071-.363-2.854-1.078-.784-.726-1.175-1.616-1.175-2.682 0-1.066.391-1.957 1.175-2.677C42.554.723 43.508.36 44.625.36c.557 0 1.087.107 1.593.305.505.2.915.469 1.213.802l-.676.633c-.52-.569-1.226-.85-2.13-.85a3.09 3.09 0 0 0-2.121.797c-.594.534-.891 1.225-.891 2.074 0 .848.297 1.545.89 2.079.6.526 1.307.796 2.122.796.865 0 1.593-.27 2.167-.802.379-.352.594-.838.65-1.459h-2.817v-.866h3.758c.046.187.059.368.059.544ZM54.404 1.41h-3.53v2.28h3.183v.866h-3.183v2.279h3.53v.883h-4.529V.528h4.53v.882ZM58.612 7.718h-1V1.41h-2.165V.527h5.332v.883h-2.167v6.308ZM64.637 7.718V.528h.997v7.19h-.997ZM70.057 7.718h-.991V1.41h-2.173V.527h5.337v.883h-2.173v6.308ZM82.323 6.79c-.764.727-1.712 1.09-2.842 1.09-1.137 0-2.085-.363-2.85-1.09-.763-.726-1.143-1.616-1.143-2.67 0-1.054.38-1.945 1.144-2.67C77.395.721 78.344.36 79.48.36c1.124 0 2.071.362 2.836 1.095.77.732 1.15 1.617 1.15 2.665 0 1.054-.38 1.944-1.144 2.67Zm-4.952-.603c.575.538 1.275.808 2.11.808.828 0 1.534-.27 2.104-.808.574-.538.865-1.23.865-2.067 0-.839-.291-1.53-.865-2.068-.57-.538-1.276-.808-2.104-.808-.835 0-1.535.27-2.11.808s-.866 1.23-.866 2.068c0 .838.291 1.529.866 2.067ZM84.867 7.718V.528h1.213l3.77 5.592h.045l-.044-1.383V.527h.998v7.19h-1.042L85.858 1.85h-.043l.043 1.388v4.48h-.99Z"/><path fill="#111" d="M75.242 18.217c-3.038 0-5.52 2.144-5.52 5.102 0 2.934 2.482 5.1 5.52 5.1 3.045 0 5.527-2.166 5.527-5.1 0-2.958-2.482-5.102-5.527-5.102Zm0 8.194c-1.667 0-3.101-1.276-3.101-3.092 0-1.84 1.434-3.093 3.101-3.093s3.108 1.254 3.108 3.093c0 1.816-1.44 3.092-3.108 3.092Zm-12.045-8.194c-3.045 0-5.52 2.144-5.52 5.102 0 2.934 2.475 5.1 5.52 5.1 3.043 0 5.52-2.166 5.52-5.1 0-2.958-2.477-5.102-5.52-5.102Zm0 8.194c-1.669 0-3.108-1.276-3.108-3.092 0-1.84 1.44-3.093 3.108-3.093 1.667 0 3.101 1.254 3.101 3.093 0 1.816-1.434 3.092-3.101 3.092Zm-14.333-6.63v2.168h5.583c-.163 1.211-.6 2.102-1.27 2.723-.814.75-2.084 1.581-4.313 1.581-3.437 0-6.127-2.57-6.127-5.757 0-3.186 2.69-5.757 6.127-5.757 1.858 0 3.21.673 4.207 1.546l1.648-1.528c-1.396-1.236-3.252-2.184-5.855-2.184-4.712 0-8.673 3.554-8.673 7.923s3.96 7.924 8.673 7.924c2.546 0 4.46-.774 5.963-2.225 1.541-1.429 2.022-3.438 2.022-5.06 0-.504-.046-.967-.127-1.354h-7.858Zm58.611 1.68c-.455-1.14-1.857-3.244-4.712-3.244-2.83 0-5.186 2.068-5.186 5.102 0 2.858 2.332 5.1 5.457 5.1 2.528 0 3.986-1.428 4.586-2.26l-1.876-1.16c-.625.85-1.478 1.412-2.71 1.412-1.224 0-2.102-.52-2.665-1.546l7.359-2.823-.253-.58Zm-7.503 1.7c-.063-1.968 1.647-2.975 2.873-2.975.961 0 1.776.445 2.047 1.082l-4.92 1.892Zm-5.982 4.948h2.42V13.117h-2.42v14.992Zm-3.962-8.755h-.08c-.544-.597-1.58-1.137-2.893-1.137-2.756 0-5.275 2.243-5.275 5.119 0 2.859 2.52 5.084 5.275 5.084 1.313 0 2.35-.545 2.893-1.16h.08v.732c0 1.951-1.123 2.999-2.936 2.999-1.478 0-2.395-.99-2.773-1.822l-2.104.814C82.82 31.337 84.427 33 87.092 33c2.836 0 5.23-1.547 5.23-5.312v-9.16h-2.294v.826Zm-2.766 7.057c-1.668 0-3.063-1.294-3.063-3.075 0-1.798 1.395-3.11 3.063-3.11 1.643 0 2.938 1.312 2.938 3.11 0 1.78-1.295 3.075-2.938 3.075ZM118.8 13.117h-5.785v14.992h2.412v-5.68h3.373c2.68 0 5.307-1.798 5.307-4.657 0-2.858-2.634-4.655-5.307-4.655Zm.063 7.226h-3.436v-5.14h3.436c1.802 0 2.83 1.386 2.83 2.569 0 1.16-1.028 2.571-2.83 2.571Zm14.914-2.154c-1.743 0-3.556.713-4.301 2.295l2.141.832c.461-.832 1.308-1.102 2.204-1.102 1.252 0 2.521.697 2.54 1.928v.158c-.436-.234-1.371-.58-2.521-.58-2.306 0-4.655 1.176-4.655 3.373 0 2.009 1.889 3.303 4.012 3.303 1.623 0 2.519-.68 3.082-1.47h.082v1.16h2.33v-5.752c0-2.658-2.141-4.145-4.914-4.145Zm-.291 8.216c-.789 0-1.888-.363-1.888-1.27 0-1.16 1.371-1.606 2.558-1.606 1.062 0 1.56.218 2.205.504-.189 1.388-1.478 2.372-2.875 2.372Zm13.695-7.888-2.773 6.5h-.083l-2.867-6.5h-2.602l4.308 9.083-2.458 5.054h2.521l6.638-14.137h-2.684Zm-21.748 9.592h2.419V13.117h-2.419v14.992Z"/><path fill="url(#a)" d="M.6 1.17c-.38.368-.6.942-.6 1.686V29.38c0 .743.22 1.318.6 1.686l.094.081 16.031-14.857v-.351L.694 1.082.6 1.17Z"/><path fill="url(#b)" d="m22.062 21.246-5.337-4.955v-.35l5.344-4.956.12.065 6.329 3.338c1.806.948 1.806 2.507 0 3.46l-6.33 3.334-.126.064Z"/><path fill="url(#c)" d="m22.189 21.181-5.464-5.066L.6 31.068c.6.584 1.578.655 2.69.07l18.899-9.957"/><path fill="url(#d)" d="M22.189 11.051 3.29 1.095C2.178.515 1.2.586.6 1.17l16.125 14.946 5.464-5.066Z"/><defs><linearGradient id="a" x1="15.302" x2="-4.77" y1="29.657" y2="8.009" gradientUnits="userSpaceOnUse"><stop stop-color="#00A0FF"/><stop offset=".007" stop-color="#00A1FF"/><stop offset=".26" stop-color="#00BEFF"/><stop offset=".512" stop-color="#00D2FF"/><stop offset=".76" stop-color="#00DFFF"/><stop offset="1" stop-color="#00E3FF"/></linearGradient><linearGradient id="b" x1="30.87" x2="-.432" y1="16.114" y2="16.114" gradientUnits="userSpaceOnUse"><stop stop-color="#FFE000"/><stop offset=".409" stop-color="#FFBD00"/><stop offset=".775" stop-color="orange"/><stop offset="1" stop-color="#FF9C00"/></linearGradient><linearGradient id="c" x1="19.218" x2="-8.001" y1="13.361" y2="-15.995" gradientUnits="userSpaceOnUse"><stop stop-color="#FF3A44"/><stop offset="1" stop-color="#C31162"/></linearGradient><linearGradient id="d" x1="-3.459" x2="8.695" y1="39.894" y2="26.785" gradientUnits="userSpaceOnUse"><stop stop-color="#32A071"/><stop offset=".069" stop-color="#2DA771"/><stop offset=".476" stop-color="#15CF74"/><stop offset=".801" stop-color="#06E775"/><stop offset="1" stop-color="#00F076"/></linearGradient></defs></svg>